<?xml version="1.0" encoding="UTF-8"?>
<svg width="57px" height="83px" viewBox="0 0 57 83" version="1.1" xmlns="http://www.w3.org/2000/svg" xmlns:xlink="http://www.w3.org/1999/xlink">
    <!-- Generator: Sketch 61 (89581) - https://sketch.com -->
    <title>Group 2</title>
    <desc>Created with Sketch.</desc>
    <g id="⚠️-Material-Symbols" stroke="none" stroke-width="1" fill="none" fill-rule="evenodd">
        <g id="Group-2">
            <g id="Group-Copy" transform="translate(0.000000, 0.000000)">
                <path d="M49.418471,65.3898441 L19.3865536,81.4828209 C12.7693268,85.0287442 4.72284343,82.1542054 1.41423002,75.0623587 C0.484191663,73.0688682 0,70.8706867 0,68.6418965 L0,36.1991245 C0,28.2701988 5.99749457,21.8425346 13.3957791,21.8425346 C15.4754081,21.8425346 17.5264769,22.3614548 19.3865536,23.3582001 L49.418471,39.4511769 C56.1018701,43.0325595 58.8108528,51.7424121 55.4691533,58.9051773 C54.1599659,61.7113548 52.0368459,63.9867554 49.418471,65.3898441 Z" id="Triangle" fill="#BD10E0" style="mix-blend-mode: darken;"></path>
                <path d="M42.5759135,37.3262653 L16.7022615,51.1202454 C11.0012661,54.1596083 4.06891126,51.6957179 1.21841356,45.6169921 C0.417149741,43.908286 0,42.0241304 0,40.1137388 L0,12.3056485 C0,5.50942649 5.16707225,0 11.5409789,0 C13.3326593,0 15.0997339,0.444788794 16.7022615,1.29914188 L42.5759135,15.093122 C48.3339189,18.1628785 50.6678117,25.6284665 47.788809,31.7679795 C46.6608937,34.1732745 44.8317441,36.1236178 42.5759135,37.3262653 Z" id="Triangle-Copy" fill="#2F17FD" style="mix-blend-mode: darken;"></path>
            </g>
        </g>
    </g>
</svg>